<svg id="Layer_1" data-name="Layer 1" xmlns="http://www.w3.org/2000/svg" viewBox="0 0 257.2 283.93"><defs><style>.cls-1{fill:#006c8d;}</style></defs><title>bio-current</title><path class="cls-1" d="M2.82,219.87c8.6-29,35.93-36,58.27-48.22,6.36-3.48,12.78-8.16,21.66-10.13-11.24,28.07,6.76,50.94,11.38,76,2.35,12.74,7.3,25,12.91,37.53,2.82-16.19,5.68-32.37,8.44-48.57,1-5.8,1.36-11.73,2.76-17.42,1.2-4.86.22-9-3-12.19-5-5-5.16-10.07-1.87-15.79,8.84-7,18.94-2.51,28.47-3.13l-.12-.26,2.4,3.38c3.63,4.41,3.35,9.24-.25,13-6.28,6.57-5.11,13.94-3.79,21.62,2.87,16.64,5.63,33.29,8.44,49.94.56,3.3.47,6.89,3.84,9.76l14.31-51.31a113.37,113.37,0,0,0,8.3-28.57c4.27-7.31,5.82-15.05,2.47-23-3.12-7.44-.74-9.4,6.51-7.5C199.4,176,217.6,181.8,234,191c2.3,1.28,4.43,2.42,6,4.49l8.21,9-.14-.13c9.63,25.8,9.11,52.75,9.09,79.65H.28C-1,262.49,2.42,241.24,2.82,219.87Z"/><path class="cls-1" d="M186,71.38a8.41,8.41,0,0,0-1.7,6.58c.2,2.25,1.7,3,3.68,3.11l-.28-.37c3.19,11.43-1.28,21.85-4.23,32.48l.22-.23-2.46,4.61L170.6,128.75h0c-3.77,6-5.56,12.72-3.36,19.4,2,6.19-.75,9.2-5,12.58-5.47,4.38-11.29,7.68-18.32,8.58-11.17,2.35-22.22.67-33.26-1l-.56.18c-3-2.55-6.22-4.38-10.32-4-7.94-2.87-11.18-8.3-10.42-16.87s.79-16.63-9.35-22C71.68,121,66.5,94.75,70.74,85.93c2-4.22,2.62-7.72,1.15-12.39C68.79,63.66,69,53.33,69,42.93c0-25.48,31.09-50.85,56.2-40.68,2.26.92,5.1.33,7.65.6,23.94,2.59,40.91,14.39,49.33,37.44C186.76,50.28,186.4,60.83,186,71.38Z"/></svg>