<svg id="Layer_1" data-name="Layer 1" xmlns="http://www.w3.org/2000/svg" viewBox="0 0 282.72 231.16"><defs><style>.cls-1{fill:#006c8d;}</style></defs><title>contact-current</title><path class="cls-1" d="M282.72,77.08A69.34,69.34,0,0,1,277,97.16a44.12,44.12,0,0,1-8.68,12.42,12.48,12.48,0,0,1-11.89,3.58,33.45,33.45,0,0,1-11.08-4.78c-8.72-5.48-17.17-11.37-26-16.71-6.56-4-8.23-9.28-5.89-16.59,1.26-3.94,2.47-7.9,3.82-11.81a9.38,9.38,0,0,0-1.19-8.69,23.7,23.7,0,0,0-13.16-10c-14.07-4.22-28.51-6.32-43.15-7.32-8.74-.6-17.47-.63-26.19-.44-18.17.4-36.14,2.43-53.63,7.7a24.36,24.36,0,0,0-13.27,9.81,9.85,9.85,0,0,0-1.25,9.44c1.4,3.9,2.63,7.81,3.88,11.81,2,6.54.53,11.64-5.19,15.43C54.17,97.6,44,103.92,33.94,110.3A22.32,22.32,0,0,1,27,112.94c-5.81,1.36-10.55-.47-14.27-4.95A54.07,54.07,0,0,1,.57,80.32C.45,79.41.19,78.53,0,77.63V67.7c.46-2.64.38-5.32.7-8,1-8.28,5.17-15.08,10.35-21.31,9.17-11,21.09-18.17,34.2-23.54C61,8.45,77.36,4.91,94.14,2.81c10.13-1.27,20.3-1.86,30.5-2.37,8.74-.43,17.48-.57,26.2-.32,24.5.71,48.86,2.69,72.51,9.79,13.84,4.16,27,9.71,38.41,18.86a62.2,62.2,0,0,1,16.74,19.9c2.74,5.28,3.63,10.83,4,16.61,0,.81-.25,1.66.27,2.41v9.39Z"/><path class="cls-1" d="M265,160.65a24.89,24.89,0,0,0-5-14.91,44.89,44.89,0,0,0-12.29-11c-8.58-5.53-17.41-10.68-25.94-16.3C205.14,107.5,194.51,93,194.17,72.17a17.74,17.74,0,0,0-14-17.13c-2.69-.62-3.39-.15-3.48,2.58-.08,2.57,0,5.15,0,7.73-.09,4.7-1.87,6.68-6.49,6.69q-29,.09-58,0c-4.13,0-6-2-6.17-6.13-.09-2.94,0-5.89-.08-8.83,0-1.78-.92-2.47-2.68-2.16a17.41,17.41,0,0,0-6.58,2.66c-6.15,4.07-8,10.22-8.35,17.13a48.92,48.92,0,0,1-14.43,33.1c-8,8.11-17.62,13.83-27.25,19.61-6.3,3.83-12.67,7.55-18.3,12.35-6.12,5.23-10.47,11.58-10.59,19.84-.23,16.38-.27,32.76,0,49.13.18,11.17,6.56,19.13,16.45,21.47a40.18,40.18,0,0,0,9.32.94H240.08c6.36,0,12.46-1.11,17.52-5.47,5.54-4.78,7.32-11.19,7.39-18.08C265.16,191.93,265.07,176.28,265,160.65Zm-76.84,16c-1.68,3.1-2.23,3.29-5.41,1.77-5.39-2.59-10.78-5.2-16.17-7.77-2-1-4.14-1.95-6.13,0s-1.09,4.26,0,6.34c2.7,5.34,5.39,10.68,8.24,15.94,1.27,2.34,1,3.74-1.42,5.13-19.46,11.31-46,7.9-62.22-7.82-11-10.66-16.53-23.5-16.87-40.66.91-20,10.9-36.46,30.61-45.85,19.46-9.28,38.49-6.8,55.58,6.37,20.13,15.55,25.86,44.22,13.79,66.54Z"/><path class="cls-1" d="M159,151.68a17.87,17.87,0,0,1-18,17.56c-9.33-.09-17.33-8.28-17.28-17.69a17.64,17.64,0,0,1,35.28.13Z"/><path class="cls-1" d="M176.57,127.4a6.49,6.49,0,1,1-6.42-6.56A6.65,6.65,0,0,1,176.57,127.4Z"/><path class="cls-1" d="M154.48,189.22a6.49,6.49,0,1,1-6.45-6.54A6.65,6.65,0,0,1,154.48,189.22Z"/><path class="cls-1" d="M119.14,127.35a6.63,6.63,0,0,1-6.57,6.47,6.75,6.75,0,0,1-6.41-6.38,6.49,6.49,0,0,1,13-.09Z"/><path class="cls-1" d="M125.85,178.27a6.49,6.49,0,1,1-6.43,6.67A6.85,6.85,0,0,1,125.85,178.27Z"/><path class="cls-1" d="M130.42,120.58a6.49,6.49,0,1,1,6.38-6.6q0,.12,0,.24A6.65,6.65,0,0,1,130.42,120.58Z"/><path class="cls-1" d="M158.9,114.05a6.73,6.73,0,0,1-6.54,6.53,6.82,6.82,0,0,1-6.44-6.65,6.49,6.49,0,0,1,13,.12Z"/><path class="cls-1" d="M103.82,155.89a6.81,6.81,0,0,1-6.5-6.58,6.49,6.49,0,1,1,6.5,6.58Z"/><path class="cls-1" d="M108.26,165a6.72,6.72,0,0,1,6.46,6.55,6.49,6.49,0,1,1-6.46-6.55Z"/><path class="cls-1" d="M185.36,145.05a6.5,6.5,0,1,1-13-.18,6.86,6.86,0,0,1,6.75-6.36A6.66,6.66,0,0,1,185.36,145.05Z"/></svg>