<svg id="Layer_1" data-name="Layer 1" xmlns="http://www.w3.org/2000/svg" viewBox="0 0 282.72 231.16"><defs><style>.cls-1{fill:#fff;}</style></defs><title>contact-icon</title><path class="cls-1" d="M285.36,105.5a69.34,69.34,0,0,1-5.68,20.08A44.12,44.12,0,0,1,271,138a12.48,12.48,0,0,1-11.89,3.58,33.45,33.45,0,0,1-11.08-4.78c-8.72-5.48-17.17-11.37-26-16.71-6.56-4-8.23-9.28-5.89-16.59,1.26-3.94,2.47-7.9,3.82-11.81A9.38,9.38,0,0,0,218.77,83a23.7,23.7,0,0,0-13.16-10c-14.07-4.22-28.51-6.32-43.15-7.32-8.74-.6-17.47-0.63-26.19-0.44-18.17.4-36.14,2.43-53.63,7.7a24.36,24.36,0,0,0-13.27,9.81,9.85,9.85,0,0,0-1.25,9.44C69.52,96.09,70.75,100,72,104c2,6.54.53,11.64-5.19,15.43-10,6.59-20.12,12.91-30.23,19.29a22.32,22.32,0,0,1-6.93,2.64c-5.81,1.36-10.55-.47-14.27-4.95A54.07,54.07,0,0,1,3.21,108.74c-0.12-.91-0.38-1.79-0.57-2.69V96.12c0.46-2.64.38-5.32,0.7-8,1-8.28,5.17-15.08,10.35-21.31,9.17-11,21.09-18.17,34.2-23.54C63.6,36.87,80,33.33,96.78,31.23c10.13-1.27,20.3-1.86,30.5-2.37,8.74-.43,17.48-0.57,26.2-0.32,24.5,0.71,48.86,2.69,72.51,9.79,13.84,4.16,27,9.71,38.41,18.86a62.2,62.2,0,0,1,16.74,19.9c2.74,5.28,3.63,10.83,4,16.61,0,0.81-.25,1.66.27,2.41v9.39Z" transform="translate(-2.64 -28.42)"/><path class="cls-1" d="M267.66,189.07a24.89,24.89,0,0,0-5.05-14.91,44.89,44.89,0,0,0-12.29-11c-8.58-5.53-17.41-10.68-25.94-16.3-16.6-10.94-27.23-25.42-27.57-46.27a17.74,17.74,0,0,0-14-17.13c-2.69-.62-3.39-0.15-3.48,2.58-0.08,2.57,0,5.15,0,7.73-0.09,4.7-1.87,6.68-6.49,6.69q-29,.09-58,0c-4.13,0-6-2-6.17-6.13-0.09-2.94,0-5.89-.08-8.83,0-1.78-.92-2.47-2.68-2.16A17.41,17.41,0,0,0,99.33,86c-6.15,4.07-8,10.22-8.35,17.13a48.92,48.92,0,0,1-14.43,33.1c-8,8.11-17.62,13.83-27.25,19.61C43,159.67,36.63,163.39,31,168.19c-6.12,5.23-10.47,11.58-10.59,19.84-0.23,16.38-.27,32.76,0,49.13,0.18,11.17,6.56,19.13,16.45,21.47a40.18,40.18,0,0,0,9.32.94q48.85,0,97.72,0h8.55q45.13,0,90.27,0c6.36,0,12.46-1.11,17.52-5.47,5.54-4.78,7.32-11.19,7.39-18.08C267.8,220.35,267.71,204.7,267.66,189.07Zm-76.84,16c-1.68,3.1-2.23,3.29-5.41,1.77-5.39-2.59-10.78-5.2-16.17-7.77-2-1-4.14-1.95-6.13,0s-1.09,4.26,0,6.34c2.7,5.34,5.39,10.68,8.24,15.94,1.27,2.34,1,3.74-1.42,5.13-19.46,11.31-46,7.9-62.22-7.82C96.7,208,91.18,195.16,90.84,178c0.91-20,10.9-36.46,30.61-45.85,19.46-9.28,38.49-6.8,55.58,6.37C197.16,154.07,202.89,182.74,190.82,205.06Z" transform="translate(-2.64 -28.42)"/><path class="cls-1" d="M161.63,180.1a17.87,17.87,0,0,1-18,17.56c-9.33-.09-17.33-8.28-17.28-17.69A17.63,17.63,0,0,1,161.63,180.1Z" transform="translate(-2.64 -28.42)"/><path class="cls-1" d="M179.21,155.82a6.49,6.49,0,1,1-6.42-6.56A6.65,6.65,0,0,1,179.21,155.82Z" transform="translate(-2.64 -28.42)"/><path class="cls-1" d="M157.12,217.64a6.49,6.49,0,1,1-6.45-6.54A6.65,6.65,0,0,1,157.12,217.64Z" transform="translate(-2.64 -28.42)"/><path class="cls-1" d="M121.78,155.77a6.63,6.63,0,0,1-6.57,6.47,6.75,6.75,0,0,1-6.41-6.38A6.49,6.49,0,1,1,121.78,155.77Z" transform="translate(-2.64 -28.42)"/><path class="cls-1" d="M128.49,206.69a6.49,6.49,0,1,1-6.43,6.67A6.85,6.85,0,0,1,128.49,206.69Z" transform="translate(-2.64 -28.42)"/><path class="cls-1" d="M133.06,149a6.49,6.49,0,1,1,6.38-6.36A6.65,6.65,0,0,1,133.06,149Z" transform="translate(-2.64 -28.42)"/><path class="cls-1" d="M161.54,142.47A6.73,6.73,0,0,1,155,149a6.82,6.82,0,0,1-6.44-6.65A6.49,6.49,0,0,1,161.54,142.47Z" transform="translate(-2.64 -28.42)"/><path class="cls-1" d="M106.46,184.31a6.81,6.81,0,0,1-6.5-6.58A6.49,6.49,0,1,1,106.46,184.31Z" transform="translate(-2.64 -28.42)"/><path class="cls-1" d="M110.9,193.45a6.72,6.72,0,0,1,6.46,6.55A6.49,6.49,0,1,1,110.9,193.45Z" transform="translate(-2.64 -28.42)"/><path class="cls-1" d="M188,173.47a6.49,6.49,0,0,1-13-.18,6.86,6.86,0,0,1,6.75-6.36A6.66,6.66,0,0,1,188,173.47Z" transform="translate(-2.64 -28.42)"/></svg>