<svg id="Layer_1" data-name="Layer 1" xmlns="http://www.w3.org/2000/svg" viewBox="0 0 274 274"><defs><style>.cls-1{fill:#fff;}</style></defs><title>portfolio</title><path class="cls-1" d="M281.54,155.24V159a3.78,3.78,0,0,0-.4-0.3,0.34,0.34,0,0,0-.18.18c-0.5,3-1,5.93-1.49,8.89-7,38.47-26.74,68.68-58.94,90.67a131.23,131.23,0,0,1-60.15,22.12c-0.55.06-1.62-.31-1.39,1H134.37l-0.51-.37,0,0.37h-3.75a3.81,3.81,0,0,0,.31-0.39,0.34,0.34,0,0,0-.18-0.18c-3-.5-5.93-1-8.89-1.49a133.19,133.19,0,0,1-69.53-34.24q-37.1-34.44-43.27-84.84c-0.07-.55.29-1.61-1-1.41q0-12.31,0-24.62l0.37-.51-0.37,0v-3.75a3.69,3.69,0,0,0,.4.29,0.34,0.34,0,0,0,.17-0.18c0.5-3,1-5.93,1.48-8.9A133.11,133.11,0,0,1,43.48,52.17Q78,14.73,128.68,8.52c0.55-.07,1.61.29,1.41-1h3.75l0,0.37,0.51-.37H159a3.69,3.69,0,0,0-.29.4,0.34,0.34,0,0,0,.18.17c3.5,0.56,7,1,10.49,1.67,38.57,7.7,68.81,27.89,90.39,60.77a131.92,131.92,0,0,1,20.79,57.88c0.07,0.56-.57,1.86,1,1.65V154.7l-0.37.51ZM144.26,207.66h73c4.66,0,6.86-1.8,7.64-6.43q6.86-40.69,13.65-81.4c0.68-4.09-1.23-6.35-5.37-6.35q-27.41,0-54.83,0c-23.62,0-47.25,0-70.87,0-4.54,0-7.65,1.75-9.55,5.87-1,2.26-2.33,4.41-3.46,6.63-2,4-5.25,5.79-9.73,5.75-9.54-.08-19.08,0-28.62,0-4.76,0-6.44,2.16-5.47,6.81q6.52,31.24,13,62.48c1,4.86,3.2,6.72,8.08,6.72h72.48ZM143,81.42v0q-34.11,0-68.23,0c-5.85,0-9.15,3.05-9.23,8.76-0.13,9.45,0,18.91-.07,28.36,0,1.57.48,2.26,2.13,2.25,5.62-.06,11.24,0,16.86,0a4.48,4.48,0,0,0,4.3-2.62c1.36-2.61,2.75-5.2,4.22-7.75a13.38,13.38,0,0,1,12.31-7.13h54.85c19.09,0,38.17,0,57.26,0,1.9,0,2.73-.36,2.63-2.48-0.17-3.65,0-7.31-.05-11a8.36,8.36,0,0,0-3-6.58,8.66,8.66,0,0,0-6-1.88Q177,81.44,143,81.42Z" transform="translate(-7.54 -7.54)"/></svg>