<svg id="Layer_1" data-name="Layer 1" xmlns="http://www.w3.org/2000/svg" viewBox="0 0 274 274"><defs><style>.cls-1{fill:#006c8d;}</style></defs><title>portfolio-current</title><path class="cls-1" d="M274,147.7v3.76a3.78,3.78,0,0,0-.4-.3.34.34,0,0,0-.18.18c-.5,3-1,5.93-1.49,8.89-7,38.47-26.74,68.68-58.94,90.67A131.23,131.23,0,0,1,152.84,273c-.55.06-1.62-.31-1.39,1H126.83l-.51-.37V274h-3.75a3.81,3.81,0,0,0,.31-.39.34.34,0,0,0-.18-.18L113.81,272a133.19,133.19,0,0,1-69.53-34.24Q7.18,203.28,1,152.88c-.07-.55.29-1.61-1-1.41V126.85l.37-.51H0v-3.75a3.69,3.69,0,0,0,.4.29.34.34,0,0,0,.17-.18c.5-3,1-5.93,1.48-8.9A133.11,133.11,0,0,1,35.94,44.63Q70.46,7.19,121.14,1c.55-.07,1.61.29,1.41-1h3.75V.35l.51-.37h24.65a3.69,3.69,0,0,0-.29.4.34.34,0,0,0,.18.17c3.5.56,7,1,10.49,1.67,38.57,7.7,68.81,27.89,90.39,60.77A131.92,131.92,0,0,1,273,120.87c.07.56-.57,1.86,1,1.65v24.64l-.37.51ZM136.72,200.12h73c4.66,0,6.86-1.8,7.64-6.43Q224.22,153,231,112.29c.68-4.09-1.23-6.35-5.37-6.35H99.94c-4.54,0-7.65,1.75-9.55,5.87-1,2.26-2.33,4.41-3.46,6.63-2,4-5.25,5.79-9.73,5.75-9.54-.08-19.08,0-28.62,0-4.76,0-6.44,2.16-5.47,6.81q6.52,31.24,13,62.48c1,4.86,3.2,6.72,8.08,6.72h72.48ZM135.46,73.88H67.23c-5.85,0-9.15,3.05-9.23,8.76-.13,9.45,0,18.91-.07,28.36,0,1.57.48,2.26,2.13,2.25,5.62-.06,11.24,0,16.86,0a4.48,4.48,0,0,0,4.3-2.62c1.36-2.61,2.75-5.2,4.22-7.75a13.38,13.38,0,0,1,12.31-7.13H209.86c1.9,0,2.73-.36,2.63-2.48-.17-3.65,0-7.31-.05-11a8.36,8.36,0,0,0-3-6.58,8.66,8.66,0,0,0-6-1.88Q169.46,73.9,135.46,73.88Z"/></svg>